<?xml version="1.0" encoding="UTF-8"?>
<svg version="1.1" xmlns="http://www.w3.org/2000/svg" width="170" height="170">
<path d="M0 0 C1.90038314 -0.00827153 3.80212208 -0.02719444 5.69970703 -0.13061523 C15.83280348 -0.67120919 22.99895151 1.24131275 31.11328125 7.67578125 C40.50291242 16.42201157 44.78709892 27.96566175 45.25 40.625 C45.0741356 53.63896555 39.74445922 64.82156789 32 75 C32.98742187 75.06058594 33.97484375 75.12117188 34.9921875 75.18359375 C36.91417969 75.30927734 36.91417969 75.30927734 38.875 75.4375 C40.78925781 75.55931641 40.78925781 75.55931641 42.7421875 75.68359375 C46 76 46 76 48 77 C47.67 76.01 47.34 75.02 47 74 C45.97996197 63.81382272 45.61147028 53.49983868 52 45 C54.1875 42.375 54.1875 42.375 56 41 C56.66 41 57.32 41 58 41 C57.67 40.34 57.34 39.68 57 39 C55.89144534 29.71358313 58.4304023 21.31807048 63.75 13.6875 C69.95630153 6.05859535 77.85150275 1.37076341 87.625 0.0625 C94.59946185 -0.41423537 100.5316783 1.56916298 107 4 C107 4.99 107 5.98 107 7 C105.7934375 7.24234375 104.586875 7.4846875 103.34375 7.734375 C101.72904512 8.07233649 100.11446848 8.41091101 98.5 8.75 C97.70851562 8.90726563 96.91703125 9.06453125 96.1015625 9.2265625 C87.77002412 11.00213625 81.89717076 13.76584805 76 20 C75.01 20.33 74.02 20.66 73 21 C73.62936439 18.06296616 74.62420173 15.66211372 76 13 C70.39994851 17.29442151 65.84876461 21.34618047 64.5390625 28.52734375 C64.12095545 32.37505859 64 36.12796238 64 40 C65.1446875 38.7934375 65.1446875 38.7934375 66.3125 37.5625 C69 35 69 35 72 34 C72.17015625 34.55429687 72.3403125 35.10859375 72.515625 35.6796875 C72.75796875 36.40414062 73.0003125 37.12859375 73.25 37.875 C73.48203125 38.59429687 73.7140625 39.31359375 73.953125 40.0546875 C75.29406644 42.54643689 76.32715177 43.13326117 79 44 C81.11430438 43.9240894 81.11430438 43.9240894 83.25 43.3125 C84.42755859 43.01666016 84.42755859 43.01666016 85.62890625 42.71484375 C87.87248897 42.03844237 90.01368909 41.24702779 92.1875 40.375 C95.55816708 39.03078607 98.342609 38.72569568 102 39 C101.67 39.99 101.34 40.98 101 42 C100.01 42.33 99.02 42.66 98 43 C98.04768403 44.87880872 98.04768403 44.87880872 99 47 C100.96498322 48.38442 102.97048465 49.71203834 105 51 C110.27986272 55.3998856 113.56188999 60.23434856 114.19970703 67.17236328 C114.94701304 82.70319571 114.94701304 82.70319571 112 90 C108.00080085 88.25473546 105.68668981 85.73476772 102.78125 82.55859375 C100.81273362 80.83614192 99.5125949 80.53558286 97 80 C96.6376123 80.85118408 96.27522461 81.70236816 95.90185547 82.5793457 C94.5307362 85.79251114 93.15466541 89.00346619 91.77539062 92.21313477 C91.1839328 93.59218732 90.59435475 94.97204791 90.00683594 96.3527832 C76.61200535 127.81692023 76.61200535 127.81692023 61 135 C49.33356242 134.73736693 32.29033468 127.90135638 23.7890625 119.92578125 C17.0625099 112.79747209 11.56843653 104.65213351 6.34765625 96.3828125 C3.11729504 91.29306566 -0.12823216 87.55941178 -5 84 C-6.15242188 83.10087891 -6.15242188 83.10087891 -7.328125 82.18359375 C-12.81240754 78.25100193 -17.49701175 76.4326898 -24.0625 75.4375 C-34.02478113 73.92459675 -41.13407867 70.0755189 -47.53125 62.21484375 C-54.92853509 51.05989522 -55.4891048 36.85585465 -53.5390625 23.94921875 C-50.50820896 12.77071774 -43.65052505 3.73016334 -33.8203125 -2.34765625 C-22.41265978 -8.35281683 -10.63086158 -7.08724105 0 0 Z M-42 12 C-41 14 -41 14 -41 14 Z M-44 15 C-43 17 -43 17 -43 17 Z M-45 17 C-44 19 -44 19 -44 19 Z M-46 19 C-49.47573584 27.85328939 -50.87824482 36.60877588 -49 46 C-48.67 46 -48.34 46 -48 46 C-47.95101562 44.88882813 -47.90203125 43.77765625 -47.8515625 42.6328125 C-47.46083081 34.60431402 -46.98094455 26.82761584 -45 19 C-45.33 19 -45.66 19 -46 19 Z M-3.5234375 28.83203125 C-7.84061893 35.17075001 -8.85859468 41.41378673 -8 49 C-6.60322637 55.72400329 -4.01255371 61.23598768 1.8203125 65.25390625 C6.48999478 67.88174706 10.68673552 68.99236068 16 68 C22.60168616 66.00703814 26.67180052 61.9568411 30 56 C32.7900748 48.96249175 33.38257432 41.39100856 31.08984375 34.109375 C28.06458587 27.61139345 24.62325184 23.55282222 17.9375 20.6875 C8.82934508 18.55580417 2.20288485 21.65451762 -3.5234375 28.83203125 Z M-17 22 C-16 24 -16 24 -16 24 Z M-18 24 C-17 26 -17 26 -17 26 Z M-19 26 C-18 28 -18 28 -18 28 Z M-20 28 C-24.40639385 37.96228175 -24.80816199 47.51000643 -22 58 C-20.72887548 54.1570654 -20.96929839 50.3640287 -21.0625 46.375 C-21.14931661 40.02002439 -20.66146111 34.17114127 -19 28 C-19.33 28 -19.66 28 -20 28 Z M-48 46 C-47 50 -47 50 -47 50 Z M55.625 53.5625 C52.77079543 57.84380686 52.46748028 61.97909981 53 67 C54.523009 71.03597385 55.98807216 74.1566818 60 76 C63.5020181 75.97911321 66.8343153 75.58284235 70 74 C70 73.34 70 72.68 70 72 C70.70125 71.814375 71.4025 71.62875 72.125 71.4375 C76.04135028 69.47932486 78.5338864 66.59323769 81 63 C81 62.34 81 61.68 81 61 C81.66 61 82.32 61 83 61 C81.08444508 68.34296052 79.24680115 74.20624087 73.3125 79.3125 C69.20351578 81.40575611 65.61566659 82.2554797 61 82 C58.0625 80.5625 58.0625 80.5625 56 79 C55.34 79 54.68 79 54 79 C54.72513673 82.14196235 54.72513673 82.14196235 57.3125 83.6875 C61.49021264 87.282276 63.28021995 91.84065984 65 97 C64.34 96.29875 63.68 95.5975 63 94.875 C54.45820429 86.40559239 47.16800572 83.99850491 35.2109375 83.30078125 C32.36466558 83.03415967 29.97337783 82.50451335 27.25 81.6875 C22.77246184 80.55581453 20.14129139 81.89055177 16.15234375 83.97265625 C13.09506704 85.43193715 10.35499776 85.71446828 7 86 C12.31322733 92.02165764 19.39056088 96.42693645 27 99 C28.32 99 29.64 99 31 99 C30.67 99.66 30.34 100.32 30 101 C26.7 101 23.4 101 20 101 C24.37124502 108.60216526 31.18340512 115.12579728 39.41015625 118.37890625 C46.0327571 119.96713179 53.75726578 120.14338204 60.25 117.875 C63.60522024 115.58734984 64.21545812 113.92270942 65 110 C65.66 110 66.32 110 67 110 C67.33 111.32 67.66 112.64 68 114 C74.31999757 110.68441553 77.27611041 105.42819031 79.82421875 98.8828125 C81.22046651 93.95138423 81.21127583 89.07062 81 84 C81.66 84 82.32 84 83 84 C83.33 84.66 83.66 85.32 84 86 C88.00548208 75.80422744 91.61626068 65.62761199 87.1875 54.9375 C86.25321786 52.73737794 86.25321786 52.73737794 85 51 C84.01 50.67 83.02 50.34 82 50 C82 51.65 82 53.3 82 55 C81.34 55 80.68 55 80 55 C79.7525 54.236875 79.505 53.47375 79.25 52.6875 C77.79319388 49.55536685 77.10526637 48.51282208 74 47 C66.25133773 45.76862344 60.98081606 47.78385635 55.625 53.5625 Z M-47 50 C-46 52 -46 52 -46 52 Z M-21 58 C-20 60 -20 60 -20 60 Z M99 58 C97.75725937 59.03554094 97.75725937 59.03554094 97.73828125 61.2734375 C98.21066325 66.19467087 101.72610064 69.48935172 105 73 C107.70193796 75.03193638 107.70193796 75.03193638 110 76 C108.82940554 66.7232007 108.82940554 66.7232007 104 59 C101.42267086 57.94832473 101.42267086 57.94832473 99 58 Z M-20 61 C-19 63 -19 63 -19 63 Z " fill="#FEFEFE" transform="translate(55,25)"/>
<path d="M0 0 C3.40990297 0.487129 4.51618402 1.71945396 6.625 4.375 C6.625 5.035 6.625 5.695 6.625 6.375 C5.325625 6.189375 4.02625 6.00375 2.6875 5.8125 C0.53924457 5.4768371 0.53924457 5.4768371 -1.375 5.375 C-2.58061184 6.35767859 -2.58061184 6.35767859 -2.47265625 8.22265625 C-2.46105469 8.95355469 -2.44945313 9.68445313 -2.4375 10.4375 C-2.416875 11.736875 -2.39625 13.03625 -2.375 14.375 C1.34099191 14.57586443 2.39708445 14.5269437 5.625 12.375 C5.955 13.035 6.285 13.695 6.625 14.375 C5.05469171 16.93708195 4.05213146 18.19515518 1.25 19.375 C-1.375 19.375 -1.375 19.375 -4.125 17.9375 C-6.73542867 14.96451179 -7.25325019 13.20451744 -7.51953125 9.33984375 C-7.19908921 4.9835641 -4.41043222 0.69638403 0 0 Z " fill="#FFFFFE" transform="translate(70.375,60.625)"/>
<path d="" fill="#000000" transform="translate(0,0)"/>
<path d="" fill="#000000" transform="translate(0,0)"/>
<path d="" fill="#000000" transform="translate(0,0)"/>
<path d="" fill="#000000" transform="translate(0,0)"/>
<path d="" fill="#000000" transform="translate(0,0)"/>
<path d="" fill="#000000" transform="translate(0,0)"/>
<path d="" fill="#000000" transform="translate(0,0)"/>
<path d="" fill="#000000" transform="translate(0,0)"/>
<path d="" fill="#000000" transform="translate(0,0)"/>
<path d="" fill="#000000" transform="translate(0,0)"/>
<path d="" fill="#000000" transform="translate(0,0)"/>
<path d="" fill="#000000" transform="translate(0,0)"/>
<path d="" fill="#000000" transform="translate(0,0)"/>
<path d="" fill="#000000" transform="translate(0,0)"/>
<path d="" fill="#000000" transform="translate(0,0)"/>
<path d="" fill="#000000" transform="translate(0,0)"/>
<path d="" fill="#000000" transform="translate(0,0)"/>
<path d="" fill="#000000" transform="translate(0,0)"/>
<path d="" fill="#000000" transform="translate(0,0)"/>
<path d="" fill="#000000" transform="translate(0,0)"/>
<path d="" fill="#000000" transform="translate(0,0)"/>
<path d="" fill="#000000" transform="translate(0,0)"/>
<path d="" fill="#000000" transform="translate(0,0)"/>
<path d="" fill="#000000" transform="translate(0,0)"/>
<path d="" fill="#000000" transform="translate(0,0)"/>
<path d="" fill="#000000" transform="translate(0,0)"/>
<path d="" fill="#000000" transform="translate(0,0)"/>
<path d="" fill="#000000" transform="translate(0,0)"/>
<path d="" fill="#000000" transform="translate(0,0)"/>
<path d="" fill="#000000" transform="translate(0,0)"/>
<path d="" fill="#000000" transform="translate(0,0)"/>
<path d="" fill="#000000" transform="translate(0,0)"/>
<path d="" fill="#000000" transform="translate(0,0)"/>
<path d="" fill="#000000" transform="translate(0,0)"/>
<path d="" fill="#000000" transform="translate(0,0)"/>
<path d="" fill="#000000" transform="translate(0,0)"/>
<path d="" fill="#000000" transform="translate(0,0)"/>
<path d="" fill="#000000" transform="translate(0,0)"/>
<path d="" fill="#000000" transform="translate(0,0)"/>
<path d="" fill="#000000" transform="translate(0,0)"/>
<path d="" fill="#000000" transform="translate(0,0)"/>
<path d="" fill="#000000" transform="translate(0,0)"/>
<path d="" fill="#000000" transform="translate(0,0)"/>
<path d="" fill="#000000" transform="translate(0,0)"/>
<path d="" fill="#000000" transform="translate(0,0)"/>
<path d="" fill="#000000" transform="translate(0,0)"/>
<path d="" fill="#000000" transform="translate(0,0)"/>
<path d="" fill="#000000" transform="translate(0,0)"/>
<path d="" fill="#000000" transform="translate(0,0)"/>
<path d="" fill="#000000" transform="translate(0,0)"/>
<path d="" fill="#000000" transform="translate(0,0)"/>
<path d="" fill="#000000" transform="translate(0,0)"/>
<path d="" fill="#000000" transform="translate(0,0)"/>
<path d="" fill="#000000" transform="translate(0,0)"/>
<path d="" fill="#000000" transform="translate(0,0)"/>
<path d="" fill="#000000" transform="translate(0,0)"/>
</svg>
